<svg width="40" height="40" viewBox="0 0 40 40" fill="none" xmlns="http://www.w3.org/2000/svg">
<path d="M25.7773 0C26.8622 0 27.8431 0.447657 28.5552 1.1713C29.2634 1.89495 29.7048 2.89654 29.7048 4C29.7048 5.10346 29.2634 6.10457 28.5552 6.82821C27.8431 7.55186 26.8622 8.00196 25.7773 8.00196C24.6943 8.00196 23.7114 7.55186 23.0013 6.82821C22.2911 6.10457 21.8516 5.10346 21.8516 4C21.8516 2.89654 22.2911 1.89495 23.0013 1.1713C23.7114 0.447657 24.6943 0 25.7773 0ZM8.21095 17.0395L13.7924 24.3919C14.122 24.8257 14.0435 25.4553 13.6158 25.7892L7.15741 30.8829C6.72973 31.2187 6.11374 31.1366 5.78416 30.7028L0.204695 23.3485C-0.126855 22.9127 -0.046441 22.287 0.379278 21.9532L6.83961 16.8595C7.26729 16.5236 7.88136 16.6038 8.21095 17.0395ZM11.6461 24.8238L7.26338 19.0483L2.34896 22.9185L6.7337 28.696L11.6461 24.8238ZM14.0474 17.6452C14.02 17.6712 14.0023 17.7011 13.9983 17.7331C13.9944 17.757 13.9984 17.7832 14.0101 17.8072L14.6909 18.7087C14.7596 18.7726 14.738 18.7648 14.8263 18.7848L14.8871 18.7828C14.9577 18.7628 15.0323 18.7247 15.1107 18.6847C15.6326 18.4009 16.1584 18.077 16.6586 17.7692C18.3183 16.7497 19.725 15.8802 22.5422 15.6203C23.066 15.5703 23.529 15.9522 23.5996 16.4739L23.6741 17.0015C23.886 18.5127 24.092 19.9941 24.0037 21.9332C23.9233 23.7103 23.1582 26.2252 22.1498 28.7579C20.8668 31.9784 19.1658 35.2948 17.9927 37.1279L17.973 37.1796C17.975 37.2356 17.9731 37.2278 17.9966 37.2758L18.0515 37.3197L19.005 37.897C19.0638 37.931 19.1305 37.9413 19.1913 37.9273C19.2443 37.9153 19.2914 37.8834 19.3189 37.8414L19.3836 37.7536C20.8079 35.9744 22.0301 34.2872 23.1111 32.5081C24.1941 30.7269 25.1554 28.8258 26.0617 26.6189C26.2677 26.1111 26.8426 25.8692 27.3409 26.0791C27.4782 26.1371 27.5959 26.225 27.69 26.3309C28.3982 27.1225 28.877 27.6102 29.5479 28.2899C30.005 28.7517 30.5504 29.3073 31.3371 30.1269C31.4862 30.2808 31.5745 30.477 31.6039 30.6789C31.7765 31.8683 31.9335 33.0878 32.0924 34.2992C32.2258 35.3387 32.3632 36.3841 32.575 37.8614V37.8775C32.5829 37.9075 32.6044 37.9395 32.6358 37.9615C32.6868 37.9935 32.7496 38.0134 32.8143 38.0054L33.9267 37.8531C33.9601 37.8491 33.9895 37.8393 34.015 37.8253C34.0699 37.7773 34.064 37.7892 34.0993 37.7272L34.0974 37.6833C33.9346 36.5618 33.7796 35.4043 33.6482 34.4168C33.3009 31.8261 33.1302 30.5507 32.7045 29.5632C32.2984 28.6177 31.5823 27.7804 30.1757 26.1333C29.5538 25.3996 28.8044 24.5197 27.9824 23.5242C27.7391 23.2283 27.694 22.8307 27.8293 22.4968C28.0412 21.9771 28.2256 21.3915 28.3845 20.7238C28.5474 20.0421 28.6925 19.2366 28.8259 18.305C28.9044 17.7593 29.4027 17.3793 29.9383 17.4593C30.1835 17.4952 30.3954 17.6209 30.5426 17.8028L31.2076 18.5705C32.1061 19.612 32.5122 20.0839 32.8065 20.1298C33.1008 20.1738 33.6658 19.9782 34.6938 19.6184C35.3726 19.3785 36.2339 19.0763 37.4286 18.7145C37.4836 18.6965 37.5228 18.6627 37.5424 18.6247C37.5581 18.5967 37.562 18.5649 37.5542 18.5349L37.2187 17.489C37.205 17.4451 37.1736 17.4114 37.1324 17.3934C37.0794 17.3634 37.0108 17.3593 36.946 17.3773C36.2751 17.5812 35.714 17.6251 35.1549 17.6711C34.6958 17.7071 34.2348 17.7473 33.7678 17.8892C33.3127 18.0272 32.8379 17.811 32.6221 17.3992C30.1502 13.4651 27.8607 11.8538 25.1632 12.0098C22.2871 12.1777 18.7794 14.251 14.0651 17.6374L14.0474 17.6452ZM12.066 17.4192C12.1484 16.8955 12.421 16.404 12.8683 16.0561L12.937 16.002C17.9377 12.4157 21.7221 10.2149 25.0553 10.019C28.4002 9.82114 31.1429 11.5619 33.9306 15.8019C34.3053 15.7339 34.6546 15.7083 34.9999 15.6803C35.4589 15.6424 35.918 15.6061 36.3869 15.4641C36.944 15.2922 37.5228 15.3622 38.0073 15.6101C38.5037 15.8639 38.9019 16.306 39.0824 16.8697L39.4336 17.9732C39.5945 18.5329 39.518 19.1084 39.259 19.5862C39.0079 20.0539 38.5802 20.4317 38.0388 20.6096L37.9799 20.6296C36.9067 20.9554 36.0259 21.2632 35.3314 21.5071C34.0111 21.9709 33.2833 22.2248 32.5162 22.1069C31.7197 21.985 31.2056 21.5471 30.4052 20.6535L30.2836 21.1933C30.1541 21.743 30.0109 22.2408 29.8559 22.6925C30.5857 23.5741 31.1644 24.2501 31.6549 24.8258C33.193 26.6329 33.9777 27.5505 34.4976 28.7579C35.0312 29.9913 35.2156 31.3626 35.5884 34.1533C35.7002 34.9889 35.8316 35.9721 36.0357 37.3914C36.0769 37.6853 36.0592 37.9691 35.9847 38.247C35.914 38.5148 35.7925 38.763 35.6198 38.9868L35.6061 39.0069C35.4256 39.2407 35.2137 39.4307 34.9724 39.5686C34.737 39.7005 34.4721 39.7903 34.1798 39.8282L33.0674 39.9805C32.4867 40.0585 31.9257 39.8982 31.4901 39.5784C31.0566 39.2545 30.7427 38.7746 30.6446 38.2089L30.6348 38.1513C30.4641 36.9579 30.3071 35.7563 30.1521 34.5569C30.0266 33.5834 29.8991 32.6159 29.7107 31.2826C29.077 30.6249 28.5846 30.1271 28.1668 29.7013L27.2702 28.7858C26.5012 30.5089 25.6811 32.0681 24.7747 33.5574C23.629 35.4444 22.3617 37.1936 20.9041 39.0108C20.5882 39.4625 20.1212 39.7562 19.6131 39.8722C19.0834 39.9901 18.5047 39.9123 18.0084 39.6145L17.0549 39.0347C16.8195 38.8907 16.6214 38.715 16.4585 38.5051L16.4251 38.4651C16.2721 38.2552 16.1603 38.0131 16.0897 37.7453L16.074 37.6916C16.0053 37.3997 15.9936 37.1099 16.0406 36.836C16.0877 36.5602 16.1917 36.2939 16.3526 36.042C17.4649 34.3028 19.0893 31.1248 20.3331 28.0083C21.2709 25.6515 21.9791 23.3645 22.0497 21.8492C22.1204 20.282 21.9713 18.9986 21.7967 17.7252C20.0114 18.0391 18.9226 18.7086 17.6709 19.4802C17.1883 19.7761 16.6822 20.0879 16.0308 20.4417C15.8268 20.5516 15.6188 20.6457 15.3972 20.7096C15.1264 20.7816 14.8479 20.8078 14.5477 20.7638C14.2907 20.7238 14.0513 20.6436 13.8336 20.5256L13.7571 20.4876C13.5216 20.3456 13.3118 20.1559 13.1352 19.918C12.9547 19.6821 12.5427 19.2126 12.423 18.9707C12.0974 18.499 11.9855 17.945 12.066 17.4192ZM27.1662 2.58468C26.8111 2.22285 26.3187 2.00098 25.7773 2.00098C25.2378 2.00098 24.7453 2.22285 24.3903 2.58468C24.0352 2.9465 23.8154 3.44827 23.8154 4C23.8154 4.54973 24.0352 5.05151 24.3903 5.41533C24.7453 5.77715 25.2378 5.99903 25.7773 5.99903C26.3187 5.99903 26.8111 5.77715 27.1662 5.41533C27.5213 5.05151 27.741 4.54973 27.741 4C27.741 3.44827 27.5213 2.9465 27.1662 2.58468Z" fill="#E85D5D"/>
</svg>
