<svg width="36" height="40" viewBox="0 0 36 40" fill="none" xmlns="http://www.w3.org/2000/svg">
<path d="M15.9304 17.6396L15.0027 16.5261C13.259 14.4455 11.3133 12.1234 10.364 10.0848L10.3424 10.037C9.83444 8.76385 9.69522 7.3527 9.91685 6.00364H1.95942V10.5864L11.4663 20.2754L11.4879 20.2935L11.5056 20.3096L17.6623 26.585L33.3633 10.5883V6.00364H23.4445C23.6681 7.3527 23.5289 8.76385 23.0189 10.037L22.9699 10.1487C22.0107 12.1693 20.0886 14.4655 18.3606 16.5261L17.4309 17.6396C17.0857 18.0613 16.4659 18.1192 16.0521 17.7655L15.9304 17.6396ZM19.051 28L28.8638 37.9994H33.3633V13.4184L19.051 28ZM17.529 29.2794C17.2308 29.3294 16.9111 29.2332 16.6816 28.9994C16.4502 28.7615 16.358 28.4381 16.407 28.1323L10.7935 22.4141L1.95942 31.4137V37.9994H12.3509L19.2197 30.998L17.529 29.2794ZM20.6084 32.413L15.1262 37.9994H26.0885L20.6084 32.413ZM1.95942 28.5836L9.40687 21.001L1.95942 13.4164V28.5836ZM10.5366 4.00503C10.8563 3.3275 11.2819 2.69192 11.8114 2.13231C12.4666 1.43879 13.2276 0.914934 14.0376 0.559181C14.883 0.185441 15.7833 0 16.6816 0C18.4449 0 20.2082 0.713293 21.5517 2.13231C22.0793 2.69192 22.507 3.3275 22.8267 4.00503H34.3459C34.8872 4.00503 35.3266 4.45276 35.3266 5.00238V38.9987C35.3266 39.5524 34.8872 40 34.3459 40H28.4814H28.4343H12.7804H12.7334H0.980696C0.439352 40 0 39.5524 0 38.9987V5.00238C0 4.45276 0.439352 4.00503 0.980696 4.00503H10.5366ZM12.1273 5.27807C12.1135 5.32603 12.0979 5.37223 12.0783 5.4142C11.9861 5.67802 11.9174 5.94554 11.8664 6.21735C11.6761 7.23664 11.7723 8.31181 12.1567 9.28114C13.0021 11.0659 14.8399 13.2606 16.4894 15.2272L16.6816 15.459L16.8739 15.2272C18.5234 13.2606 20.3612 11.0659 21.2066 9.28114C21.591 8.31181 21.6852 7.23664 21.4969 6.21735C21.4459 5.94554 21.3752 5.67802 21.285 5.4142C21.2654 5.37223 21.2498 5.32603 21.236 5.27807C20.9948 4.63052 20.63 4.02873 20.1435 3.51708C19.1883 2.50579 17.933 2.00251 16.6816 2.00251C16.0442 2.00251 15.4068 2.13251 14.8105 2.39433C14.2319 2.64416 13.6905 3.01943 13.2198 3.51708C12.7353 4.02873 12.3705 4.63451 12.1273 5.27807ZM18.7607 4.88039C19.3374 5.46599 19.6256 6.23148 19.6256 7.00294C19.6256 7.76641 19.3373 8.53794 18.7626 9.12354L18.698 9.1816C18.1311 9.72922 17.4054 10.0009 16.6816 10.0009C15.9324 10.0009 15.1792 9.70913 14.6045 9.12354H14.6007C14.026 8.53794 13.7376 7.76641 13.7376 7.00294C13.7376 6.23148 14.026 5.46594 14.6007 4.88235C15.1753 4.29475 15.9285 4.00307 16.6816 4.00307C17.4309 4.00307 18.1841 4.2948 18.7607 4.88039ZM17.6623 7.00294C17.6623 6.74512 17.5662 6.48734 17.376 6.29347C17.1857 6.09961 16.9347 5.99973 16.6816 5.99973C16.4306 5.99973 16.1795 6.09961 15.9892 6.29347C15.797 6.48734 15.7009 6.74512 15.7009 7.00294C15.7009 7.25676 15.797 7.51469 15.9873 7.70655C16.1756 7.90242 16.4306 8.00029 16.6816 8.00029C16.917 8.00029 17.1543 7.91649 17.3407 7.74461L17.3741 7.7085C17.5663 7.51464 17.6623 7.25676 17.6623 7.00294Z" fill="#E85D5D"/>
</svg>
