<svg width="40" height="41" viewBox="0 0 40 41" fill="none" xmlns="http://www.w3.org/2000/svg">
<path d="M0.980826 0.337524H38.2758C38.8172 0.337524 39.2566 0.787258 39.2566 1.33693V31.3411C39.2566 31.8928 38.8172 32.3425 38.2758 32.3425H31.3002C30.7941 32.8462 30.2134 33.2698 29.5759 33.5976L31.3512 39.0304C31.5218 39.5501 31.2433 40.1156 30.7313 40.2875C30.2193 40.4594 29.6661 40.1738 29.4974 39.6541L27.7221 34.2291C27.3259 34.301 26.9159 34.3394 26.498 34.3394C26.0802 34.3394 25.6721 34.301 25.2739 34.2291L23.5006 39.6541C23.3319 40.1738 22.7787 40.4554 22.2667 40.2855C21.7547 40.1116 21.4762 39.5502 21.6449 39.0265L23.4221 33.5996C22.7807 33.2698 22.1961 32.8423 21.688 32.3366L0.980826 32.3425C0.43941 32.3425 0 31.8928 0 31.3411V1.33693C0 0.787258 0.43941 0.337524 0.980826 0.337524ZM26.498 24.3389C27.3121 24.3389 28.0477 24.6751 28.5813 25.2168L28.6382 25.2827C29.1364 25.8204 29.4424 26.5476 29.4424 27.3372C29.4424 28.1647 29.1129 28.9163 28.5793 29.458C28.0477 30.0036 27.3121 30.3398 26.498 30.3398C25.6859 30.3398 24.9503 30.0036 24.4167 29.458L24.3598 29.394C23.8615 28.8564 23.5536 28.1307 23.5536 27.3372C23.5536 26.5136 23.8851 25.7644 24.4187 25.2227C24.9503 24.675 25.6859 24.3389 26.498 24.3389ZM27.1924 26.632C27.0159 26.4541 26.7688 26.3377 26.498 26.3377C26.2273 26.3377 25.9821 26.4541 25.8036 26.632C25.6271 26.8119 25.5172 27.0613 25.5172 27.3372C25.5172 27.599 25.6113 27.8352 25.7663 28.0111L25.8036 28.0472C25.9821 28.2271 26.2273 28.339 26.498 28.339C26.7688 28.339 27.0159 28.2271 27.1924 28.0472C27.3709 27.8693 27.4808 27.615 27.4808 27.3372C27.4808 27.0813 27.3847 26.8435 27.2297 26.6676L27.1924 26.632ZM6.86973 24.337C6.32832 24.337 5.88891 23.8912 5.88891 23.3395C5.88891 22.7878 6.32832 22.3401 6.86973 22.3401H16.6839C17.2253 22.3401 17.6647 22.7878 17.6647 23.3395C17.6647 23.8912 17.2253 24.337 16.6839 24.337H6.86973ZM6.86973 18.3386C6.32832 18.3386 5.88891 17.8908 5.88891 17.3392C5.88891 16.7855 6.32832 16.3398 6.86973 16.3398H32.3869C32.9283 16.3398 33.3677 16.7855 33.3677 17.3392C33.3677 17.8908 32.9283 18.3386 32.3869 18.3386H6.86973ZM6.86973 14.339C6.32832 14.339 5.88891 13.8893 5.88891 13.3396C5.88891 12.7859 6.32832 12.3402 6.86973 12.3402H32.3869C32.9283 12.3402 33.3677 12.7859 33.3677 13.3396C33.3677 13.8893 32.9283 14.339 32.3869 14.339H6.86973ZM12.7586 8.33669C12.2172 8.33669 11.7778 7.89091 11.7778 7.33924C11.7778 6.78756 12.2172 6.33788 12.7586 6.33788H24.5364C25.0778 6.33788 25.5172 6.78756 25.5172 7.33924C25.5172 7.89091 25.0778 8.33669 24.5364 8.33669H12.7586ZM30.1114 30.7272C30.1349 30.6933 30.1624 30.6655 30.1918 30.6355L30.1997 30.6252C30.3703 30.4254 30.5253 30.2138 30.6646 29.986L30.6666 29.984L30.694 29.9377L30.7215 29.8918L30.7273 29.884L30.7626 29.8201L30.7744 29.7961L30.7862 29.78L30.7881 29.7717L30.8019 29.7498L30.8136 29.7259L30.8274 29.7L30.8509 29.6522L30.8647 29.6302L30.8686 29.618L30.8882 29.58L30.9019 29.5561L30.9118 29.5321L30.9215 29.5102L30.9353 29.4799L30.947 29.456L30.9588 29.4302L30.9706 29.4062L30.9725 29.3979L30.9804 29.3804L30.9922 29.356L30.9961 29.3443L31.002 29.3301L31.0138 29.3023L31.0196 29.2881L31.0353 29.2545L31.0432 29.2301L31.0451 29.2281L31.0647 29.1744L31.0745 29.1505L31.0844 29.1261L31.0863 29.1164L31.0942 29.0983L31.104 29.0725L31.1079 29.0603L31.1138 29.0466L31.1236 29.0202L31.1295 29.0046L31.1315 28.9944L31.1491 28.9466V28.9402L31.1589 28.9163L31.1667 28.8904V28.8885L31.1825 28.8343L31.1864 28.8265L31.1903 28.8104L31.2001 28.7826L31.2021 28.7704L31.208 28.7548L31.2158 28.7284L31.2217 28.7026L31.2295 28.6767L31.2354 28.6484L31.2374 28.6464L31.2432 28.6206L31.2511 28.5947V28.5908L31.259 28.5645L31.2648 28.5386L31.2668 28.5308L31.2766 28.4825L31.2805 28.4708L31.2825 28.4566L31.2904 28.4307L31.2962 28.401L31.3021 28.3746L31.306 28.3488V28.3449L31.3178 28.2907V28.2887L31.3237 28.2609L31.3276 28.2351L31.3335 28.2068L31.3394 28.1648L31.3414 28.1511L31.3472 28.1189L31.3492 28.1028L31.3512 28.0931L31.3551 28.0628L31.359 28.0408V28.035L31.3629 28.0091L31.3669 27.9769L31.3688 27.951L31.3727 27.9213L31.3747 27.9149L31.3767 27.8949L31.3786 27.8632L31.3825 27.8369L31.3845 27.8051L31.3864 27.789L31.3884 27.7773L31.3904 27.749L31.3924 27.7232V27.7212L31.3982 27.6314V27.6051L31.4002 27.5953V27.5733L31.4022 27.545V27.5172L31.4041 27.4855V27.4572L31.4061 27.4274V27.3372C31.4061 25.96 30.8568 24.709 29.9682 23.8056C29.0815 22.8981 27.8535 22.3401 26.498 22.3401C25.1425 22.3401 23.9145 22.8982 23.0279 23.8017C22.1412 24.7071 21.5919 25.958 21.5919 27.3372V27.4572L21.5939 27.4674V27.5314L21.5958 27.545L21.5978 27.5733V27.6051L21.5998 27.6314L21.6037 27.689L21.6057 27.7232L21.6076 27.749L21.6096 27.7773L21.6116 27.789L21.6135 27.8051L21.6155 27.8369L21.6174 27.851V27.8632L21.6233 27.911V27.9213L21.6273 27.951L21.6312 27.9769V27.9789L21.6351 28.0091L21.6429 28.0628L21.6468 28.0931L21.6488 28.1009L21.6508 28.1189L21.6547 28.1511L21.6567 28.1628L21.6606 28.177L21.69 28.3449L21.6959 28.3746C21.8941 29.3381 22.3668 30.2015 23.0279 30.8731C23.9165 31.7806 25.1445 32.3386 26.498 32.3386C27.8555 32.3386 29.0835 31.783 29.9682 30.8795L30.1114 30.7272ZM33.1088 29.252C33.0696 29.386 33.0284 29.5203 32.9833 29.6522L32.9793 29.6619L32.9695 29.6878C32.891 29.9097 32.8028 30.1298 32.7047 30.3417H37.295V2.33829H1.96165V30.3417H20.2914C19.9814 29.6761 19.7696 28.9503 19.6793 28.1887L19.6754 28.1511L19.6735 28.1428L19.6695 28.1092L19.6656 28.0711L19.6636 28.053L19.6617 28.0291L19.6578 27.9891L19.6558 27.9672L19.6538 27.951L19.6518 27.9071L19.648 27.8769V27.8691L19.646 27.8271L19.642 27.789L19.6401 27.749L19.6381 27.7071V27.6992L19.6362 27.667L19.6342 27.6251V27.6114L19.6323 27.5831V27.545L19.6303 27.5211V27.4635L19.6283 27.4294V27.2493L19.6303 27.1576L19.6342 27.0697L19.6381 26.9795L19.642 26.8897L19.648 26.8057V26.7999L19.6558 26.714L19.6636 26.6276V26.6257L19.6735 26.5417V26.5359L19.6833 26.4539V26.448L19.695 26.3641V26.3602L19.7068 26.2782L19.7088 26.2763L19.7205 26.1943V26.1879L19.7343 26.106L19.7362 26.102L19.75 26.022L19.7519 26.0142L19.7676 25.9361V25.9303L19.7852 25.8522V25.8463L19.8029 25.7663L19.8049 25.7624L19.8245 25.6746L19.8441 25.6004V25.5906L19.8657 25.5165V25.5086L19.8872 25.4345L19.8892 25.4247L19.9108 25.3525L19.9127 25.3427L19.9363 25.2705L19.9382 25.2607L19.9598 25.1885L19.9637 25.1788L19.9873 25.1065L19.9892 25.0968L20.0147 25.0246L20.0167 25.0148L20.0422 24.9426L20.0462 24.9367L20.0717 24.865L20.0756 24.8567L20.1011 24.785L20.105 24.7771L20.1364 24.6971L20.1639 24.6288L20.1697 24.6171L20.1972 24.5493L20.2011 24.5371L20.2659 24.397L20.2698 24.3833L20.3365 24.2433L20.3757 24.1691L20.4189 24.0793L20.4522 24.0193L20.4581 24.0076L20.5326 23.8695L20.5385 23.8573L20.5738 23.7973L20.5817 23.7855L20.615 23.7275L20.6229 23.7133L20.6582 23.6557L20.668 23.6416L20.7386 23.5254L20.7563 23.4996L20.7935 23.4435L20.8014 23.4298L20.8387 23.3756L20.8485 23.3595L20.8857 23.3059L20.9348 23.2356L20.9446 23.2239L20.9838 23.1717L21.0819 23.036L21.1329 22.9701L21.2899 22.7783L21.3036 22.7642L21.3448 22.7164L21.3585 22.6983L21.3997 22.6519L21.4134 22.6383L21.4546 22.59L21.4683 22.5763L21.5115 22.5304L21.641 22.3923L21.6998 22.3343L21.7195 22.3162L21.7587 22.2742L21.7783 22.2586L21.8195 22.2167L21.8803 22.1605L21.8999 22.1444L21.9607 22.0864L22.0039 22.0507L22.0235 22.0327L22.0667 21.9946L22.0843 21.9785L22.1294 21.9404L22.149 21.9248L22.1942 21.8887L22.2118 21.8726L22.2766 21.8185L22.3413 21.7706L22.3903 21.7326L22.408 21.7209L22.4571 21.6808L22.5237 21.633L22.5394 21.6189L22.5904 21.5847L22.6081 21.571L22.6768 21.5247L22.7277 21.4891L22.7434 21.4788L22.814 21.4329L22.869 21.3988L22.8827 21.389L22.9396 21.3549L22.9533 21.3451L23.0102 21.3109L23.0239 21.3031L23.0808 21.267L23.0946 21.2592L23.1534 21.2251L23.1672 21.2192L23.226 21.185L23.2397 21.1772L23.3005 21.1431L23.3123 21.1392L23.3731 21.107L23.3869 21.1011L23.4476 21.0669L23.4614 21.0591L23.5222 21.0313L23.5359 21.025L23.5987 20.9952L23.6105 20.9869L23.6733 20.9591L23.687 20.9532L23.7498 20.9254L23.7615 20.9191L23.8282 20.8913L23.838 20.8835L23.9047 20.8571L23.9145 20.8532L23.9812 20.8234L23.993 20.8215L24.0597 20.7951L24.0715 20.7893L24.148 20.7615L24.2186 20.7371L24.2284 20.7332L24.2971 20.7053L24.3069 20.7034L24.3775 20.6814L24.3873 20.6775L24.4579 20.6556L24.4658 20.6512L24.5383 20.6292L24.5481 20.6273L24.6207 20.6053L24.6286 20.6014L24.7011 20.5814L24.7835 20.5614L24.7914 20.5575L24.8738 20.5375L24.9483 20.5175H24.9562L25.0327 20.4975H25.0385L25.1151 20.4814H25.1209L25.1994 20.4633H25.2053L25.2837 20.4477H25.2897L25.3681 20.4355L25.374 20.4335L25.4544 20.4213L25.4584 20.4194L25.5388 20.4057H25.5427L25.6251 20.3935H25.629L25.7114 20.3857H25.7153L25.7977 20.3755H25.7997L25.884 20.3657H25.886L25.9703 20.3594H25.9723L26.0586 20.3535H26.0606L26.1449 20.3496L26.2352 20.3437L26.3214 20.3413L26.4097 20.3393H26.498C28.395 20.3393 30.1134 21.1231 31.357 22.3904C32.5988 23.6556 33.3677 25.4063 33.3677 27.3372V27.5011L33.3657 27.5192V27.545L33.3638 27.5831V27.6251L33.3619 27.667L33.3599 27.6973V27.7071L33.3579 27.749L33.354 27.789L33.352 27.8271L33.3501 27.8691L33.3481 27.8749L33.3462 27.9071L33.3422 27.951V27.9652L33.3383 27.9891L33.3344 28.0291L33.3324 28.053V28.0711L33.3265 28.1092L33.3226 28.1409V28.1511L33.3187 28.1887L33.3128 28.2287L33.3089 28.2707L33.303 28.3107V28.317L33.2971 28.3488L33.2912 28.3888L33.2892 28.401L33.2853 28.4268L33.2795 28.4688L33.2755 28.4908L33.2716 28.5069L33.2657 28.5444L33.2598 28.5864L33.252 28.6245L33.2382 28.7026L33.2304 28.7406L33.2285 28.7465L33.2225 28.7826L33.2127 28.8207L33.1872 28.9363L33.1794 28.9744L33.1422 29.1261L33.1304 29.1661V29.1705L33.1108 29.2423L33.1088 29.252Z" fill="#E85D5D"/>
</svg>
