<svg width="28" height="40" viewBox="0 0 28 40" fill="none" xmlns="http://www.w3.org/2000/svg">
<path d="M6.86845 38.0012C5.51679 38.0012 4.28871 37.4377 3.40002 36.5342C2.50937 35.6307 1.96006 34.3812 1.96006 33C1.96006 31.6187 2.50936 30.3693 3.39804 29.4618C4.28673 28.5583 5.51287 27.9987 6.86845 27.9987C7.47268 27.9987 8.05141 28.1106 8.58501 28.3145L10.8195 24.6723C10.1937 23.9647 9.8131 23.0274 9.8131 21.998C9.8131 20.8946 10.2525 19.893 10.9627 19.1694L10.9686 19.1655L0.147411 1.52495C-0.137047 1.0572 0.00224689 0.439551 0.461303 0.149705C0.920359 -0.140142 1.52653 0.00355955 1.81098 0.471311L12.6557 18.1499C13.0009 18.052 13.3639 17.9962 13.7386 17.9962C14.1133 17.9962 14.4762 18.052 14.8215 18.1499L25.6662 0.471311C25.9507 0.00355955 26.5568 -0.140142 27.0159 0.149705C27.475 0.439551 27.6162 1.0572 27.3298 1.52495L16.5106 19.1655L16.5145 19.1694C17.2247 19.893 17.6641 20.8946 17.6641 21.998C17.6641 23.0274 17.2835 23.9647 16.6577 24.6723L18.8902 28.3125C19.4258 28.1106 20.0045 27.9987 20.6087 27.9987C21.931 27.9987 23.1336 28.5347 24.0183 29.4042L24.0792 29.4618C24.9678 30.3693 25.5171 31.6187 25.5171 33C25.5171 34.3812 24.9678 35.6307 24.0792 36.5342L23.9889 36.6221L25.1228 38.4731C25.4092 38.9409 25.268 39.5585 24.8089 39.8484C24.3498 40.1402 23.7456 39.9985 23.4592 39.5287L22.3273 37.6816C21.7917 37.8874 21.213 38.0012 20.6087 38.0012C19.2885 38.0012 18.0859 37.4618 17.2011 36.5942L17.1383 36.5362C16.2516 35.6306 15.7023 34.3812 15.7023 33C15.7023 31.6187 16.2516 30.3693 17.1383 29.4618L17.2305 29.372L15.0255 25.7797C14.6214 25.9216 14.1898 25.9978 13.7386 25.9978C13.2874 25.9978 12.8558 25.9216 12.4517 25.7797L10.2466 29.3759L10.3369 29.4637C11.2256 30.3693 11.7749 31.6187 11.7749 33C11.7749 34.3812 11.2255 35.6306 10.3388 36.5362L10.2761 36.5942C9.3913 37.4618 8.19069 38.0012 6.86845 38.0012ZM15.1275 20.5847C14.7724 20.2209 14.28 19.999 13.7386 19.999C13.1971 19.999 12.7047 20.2209 12.3516 20.5847C11.9965 20.9445 11.7749 21.4483 11.7749 21.998C11.7749 22.5497 11.9965 23.0514 12.3516 23.4132C12.7047 23.7731 13.1971 23.9989 13.7386 23.9989C14.28 23.9989 14.7724 23.7731 15.1275 23.4132C15.4806 23.0514 15.7023 22.5497 15.7023 21.998C15.7023 21.4483 15.4806 20.9445 15.1275 20.5847ZM22.1507 35.5606L22.186 35.5367C22.3704 35.4188 22.5392 35.2808 22.6922 35.1229C23.2238 34.5791 23.5534 33.8275 23.5534 33C23.5534 32.1704 23.2238 31.4187 22.6922 30.879L22.647 30.8312C22.1213 30.3155 21.4033 29.9996 20.6087 29.9996C19.7966 29.9996 19.0609 30.3353 18.5273 30.879C17.9937 31.4187 17.6641 32.1704 17.6641 33C17.6641 33.8275 17.9937 34.5792 18.5273 35.119L18.5705 35.1668C19.0962 35.6825 19.8162 35.9984 20.6087 35.9984C21.1757 35.9984 21.7034 35.8365 22.1507 35.5606ZM4.787 35.1229C5.31472 35.6666 6.05235 35.9984 6.86845 35.9984C7.66101 35.9984 8.38099 35.6825 8.90674 35.1668L8.94991 35.119C9.48351 34.5792 9.8131 33.8275 9.8131 33C9.8131 32.1704 9.48351 31.4187 8.94991 30.879C8.42023 30.3313 7.68455 29.9996 6.86845 29.9996C6.05628 29.9996 5.31864 30.3353 4.787 30.879C4.25339 31.4187 3.92381 32.1704 3.92381 33C3.92381 33.8275 4.25339 34.5791 4.787 35.1229Z" fill="#E85D5D"/>
</svg>
