<svg width="40" height="26" viewBox="0 0 40 26" fill="none" xmlns="http://www.w3.org/2000/svg">
<path d="M0.999401 22.0026C0.447732 22.0026 0 21.5548 0 21.0032C0 20.4495 0.447732 20.0038 0.999401 20.0038H4.09953C4.29741 19.0224 4.78309 18.147 5.46468 17.4634C6.36814 16.56 7.6194 15.998 8.99857 15.998C10.3478 15.998 11.5751 16.5377 12.4765 17.4112L12.5345 17.4634C13.2161 18.147 13.7017 19.0243 13.8996 20.0077L24.0996 20.0038C24.2974 19.0244 24.7831 18.147 25.4647 17.4634C26.3682 16.56 27.6194 15.998 29.0006 15.998C30.3498 15.998 31.577 16.5377 32.4765 17.4112L32.5344 17.4634C33.216 18.147 33.7018 19.0225 33.8997 20.0019H35.3608C35.6066 20.0019 35.8305 19.9197 35.9984 19.7798C36.1683 19.6399 36.2923 19.4381 36.3422 19.1962L37.7813 12.0005H27.4395C26.9838 12.0005 26.5521 11.9049 26.1563 11.717C25.7625 11.5311 25.4148 11.2573 25.1229 10.9016C24.8291 10.5418 24.6292 10.1477 24.5253 9.72992L24.5113 9.6743C24.4194 9.26455 24.4113 8.84265 24.4973 8.41092L25.7805 1.9989H7.08376C6.8539 2.0009 6.64201 2.0746 6.47811 2.19653C6.31421 2.31645 6.18829 2.4945 6.12633 2.71037L5.95639 3.28423C5.80048 3.8119 5.24682 4.11154 4.71714 3.95764C4.18946 3.80373 3.88768 3.25029 4.04158 2.72062L4.21146 2.14871C4.39935 1.5071 4.78514 0.971286 5.29083 0.593521C5.79653 0.217755 6.42016 0.00209245 7.08376 0.00209245L26.9159 0.00599627C26.9698 -0.00199876 27.0238 -0.00199876 27.0798 0.00599627H30.038C30.4997 -0.00199876 30.9394 0.102022 31.3412 0.293903C31.741 0.489781 32.0947 0.769498 32.3826 1.13127L39.1985 9.6499C39.3244 9.8098 39.4323 9.97574 39.5223 10.1476C39.8101 10.3255 40 10.6414 40 10.9992C40 11.189 39.948 11.3651 39.8581 11.513C39.8581 11.7109 39.8361 11.9089 39.7981 12.1108L38.301 19.588C38.1611 20.2916 37.7854 20.8911 37.2637 21.3209C36.742 21.7466 36.0763 22.0006 35.3608 22.0006H33.8997C33.6998 22.976 33.216 23.8512 32.5344 24.5308C31.625 25.4422 30.3758 26.0001 29.0006 26.0001C27.6194 26.0001 26.3682 25.4421 25.4647 24.5347C24.7851 23.8531 24.2994 22.9756 24.0996 21.9962H13.8996C13.6997 22.9756 13.2161 23.8512 12.5345 24.5308C11.625 25.4422 10.3757 26.0001 8.99857 26.0001C7.6194 26.0001 6.36814 25.4421 5.46468 24.5347C4.78509 23.8551 4.29943 22.98 4.10154 22.0026H0.999401ZM5.99836 21.0012V21.0032C6.00035 21.8307 6.33419 22.5839 6.87387 23.1195C7.42154 23.6652 8.17107 24.0013 8.99857 24.0013C9.83007 24.0013 10.5816 23.6656 11.1213 23.1259C11.665 22.5802 11.9988 21.8307 11.9988 21.0012C11.9988 20.1737 11.663 19.4221 11.1213 18.8805L11.0773 18.8302C10.5417 18.3165 9.80809 17.9987 8.99857 17.9987C8.17107 17.9987 7.42151 18.3368 6.87783 18.8805C6.33416 19.4221 5.99836 20.1737 5.99836 21.0012ZM29.0006 17.9987C28.1711 17.9987 27.4215 18.3368 26.8779 18.8805C26.3362 19.4221 26.0004 20.1737 26.0004 21.0012C26.0004 21.8307 26.3342 22.5799 26.8738 23.1195C27.4215 23.6652 28.1711 24.0013 29.0006 24.0013C29.8301 24.0013 30.5816 23.6656 31.1213 23.1259C31.665 22.5802 32.0008 21.8307 32.0008 21.0012C32.0008 20.1737 31.663 19.4221 31.1213 18.8805L31.0774 18.8302C30.5437 18.3165 29.8081 17.9987 29.0006 17.9987ZM0.999401 14.0012C0.447732 14.0012 0 13.5515 0 12.9999C0 12.4482 0.447732 12.0005 0.999401 12.0005H13.0002C13.5519 12.0005 13.9996 12.4482 13.9996 12.9999C13.9996 13.5515 13.5519 14.0012 13.0002 14.0012H0.999401ZM14.999 6.00226C15.5507 6.00226 16.0004 6.45003 16.0004 6.99969C16.0004 7.55335 15.5507 7.99907 14.999 7.99907H2.9982C2.44653 7.99907 1.9988 7.55335 1.9988 6.99969C1.9988 6.45003 2.44653 6.00226 2.9982 6.00226H14.999ZM27.8193 1.9989L26.4581 8.80472C26.4282 8.95463 26.4281 9.09641 26.4561 9.22633L26.4601 9.24634C26.4941 9.38026 26.562 9.51631 26.662 9.63623C26.7639 9.76016 26.8799 9.85402 27.0058 9.90999C27.1297 9.96795 27.2756 9.99978 27.4395 9.99978H36.9218L30.8235 2.37269C30.7176 2.24477 30.6016 2.1506 30.4797 2.09064C30.3518 2.03067 30.2039 1.9989 30.038 1.9989H27.8193Z" fill="#E85D5D"/>
</svg>
