<svg width="40" height="36" viewBox="0 0 40 36" fill="none" xmlns="http://www.w3.org/2000/svg">
<path d="M19.9998 0C24.8573 0 29.2558 1.96855 32.4362 5.15101C35.6187 8.33141 37.5895 12.7297 37.5895 17.585C37.5895 22.4425 35.6187 26.8411 32.4362 30.0236L32.1322 30.323L35.2155 33.4127C35.6166 33.818 35.6146 34.4715 35.2114 34.8727C34.8061 35.2739 34.1526 35.2714 33.7514 34.8682L30.5503 31.6613C27.6118 33.8678 23.9578 35.1766 19.9998 35.1766C16.0419 35.1766 12.3879 33.8673 9.44734 31.6588L6.24622 34.8682C5.84504 35.2714 5.1916 35.2739 4.78629 34.8727C4.38305 34.4715 4.38097 33.818 4.78421 33.4127L7.86745 30.321C7.76612 30.2238 7.66278 30.1229 7.56352 30.0236C4.38102 26.8411 2.41232 22.4425 2.41232 17.585C2.41232 12.7297 4.38102 8.33141 7.56352 5.15101C10.746 1.96855 15.1444 0 19.9998 0ZM1.97808 9.72296C1.75061 10.2441 1.14061 10.4841 0.619499 10.2546C0.0983878 10.0292 -0.141543 9.41914 0.0859263 8.89803C0.836575 7.17756 1.80853 5.57296 2.96242 4.11304C4.12459 2.64691 5.47282 1.33389 6.96791 0.211029C7.42285 -0.132239 8.0701 -0.041507 8.41131 0.415494C8.75251 0.868359 8.6595 1.51565 8.20457 1.85685C6.85009 2.87631 5.62998 4.06526 4.57949 5.39284C3.53726 6.70594 2.65842 8.15965 1.97808 9.72296ZM31.7973 1.85685C31.3423 1.51565 31.2493 0.868359 31.5925 0.415494C31.9317 -0.041507 32.5789 -0.132239 33.0339 0.211029C34.5289 1.33389 35.8772 2.64691 37.0394 4.11304C38.1912 5.57296 39.1631 7.17756 39.9138 8.89803C40.1412 9.41914 39.9034 10.0292 39.3802 10.2546C38.8591 10.4841 38.2512 10.2441 38.0237 9.72296C37.3413 8.15965 36.4624 6.70594 35.4223 5.39284C34.3718 4.06526 33.1517 2.87631 31.7973 1.85685ZM9.65414 16.5531C10.2249 16.5531 10.6881 17.0143 10.6881 17.585C10.6881 18.1558 10.2249 18.619 9.65414 18.619H7.58416C7.01342 18.619 6.55021 18.1558 6.55021 17.585C6.55021 17.0143 7.01342 16.5531 7.58416 16.5531H9.65414ZM32.4155 16.5531C32.9863 16.5531 33.4495 17.0143 33.4495 17.585C33.4495 18.1558 32.9863 18.619 32.4155 18.619H30.3456C29.7749 18.619 29.3117 18.1558 29.3117 17.585C29.3117 17.0143 29.7749 16.5531 30.3456 16.5531H32.4155ZM21.0338 7.23959C21.0338 7.81239 20.5706 8.27555 19.9998 8.27555C19.4291 8.27555 18.9659 7.81239 18.9659 7.23959V5.16969C18.9659 4.60103 19.4291 4.13576 19.9998 4.13576C20.5706 4.13576 21.0338 4.60103 21.0338 5.16969V7.23959ZM21.0338 30.0029C21.0338 30.5736 20.5706 31.0343 19.9998 31.0343C19.4291 31.0343 18.9659 30.5736 18.9659 30.0029V27.9325C18.9659 27.3597 19.4291 26.8986 19.9998 26.8986C20.5706 26.8986 21.0338 27.3597 21.0338 27.9325V30.0029ZM17.018 16.7227L13.2399 14.3176C12.7602 14.0095 12.6195 13.3726 12.9235 12.895C13.2295 12.4131 13.8665 12.2749 14.3462 12.5789L18.2194 15.0436C18.724 14.69 19.3381 14.4812 19.9998 14.4812C20.3245 14.4812 20.6368 14.5351 20.9325 14.6281L25.3847 8.69306C25.7259 8.23813 26.371 8.14336 26.826 8.48456C27.2809 8.82576 27.374 9.47507 27.0328 9.92793L22.5806 15.8625C22.9115 16.3567 23.1038 16.9502 23.1038 17.585C23.1038 18.4432 22.7564 19.2187 22.196 19.7791C21.6335 20.3437 20.858 20.6909 19.9998 20.6909C19.1437 20.6909 18.3683 20.3437 17.8058 19.7791C17.2433 19.2187 16.896 18.4432 16.896 17.585C16.896 17.2873 16.9394 16.9957 17.018 16.7227ZM20.7319 16.853C20.5478 16.6669 20.2873 16.5531 19.9998 16.5531C19.7145 16.5531 19.456 16.6668 19.2678 16.855C19.0817 17.0411 18.9659 17.3017 18.9659 17.585C18.9659 17.8725 19.0817 18.1309 19.2678 18.3191C19.456 18.5052 19.7145 18.619 19.9998 18.619C20.2852 18.619 20.5458 18.5052 20.7319 18.3191C20.918 18.1309 21.0359 17.8725 21.0359 17.585C21.0359 17.3017 20.918 17.0412 20.7319 16.853ZM30.9742 6.61509C28.166 3.80691 24.2845 2.06788 19.9998 2.06788C15.7151 2.06788 11.8358 3.80691 9.02755 6.61509C6.21934 9.41913 4.4823 13.3025 4.4823 17.585C4.4823 21.8717 6.21934 25.7534 9.02755 28.5595C11.8358 31.3698 15.7151 33.1067 19.9998 33.1067C24.2845 33.1067 28.166 31.3698 30.9742 28.5595C33.7804 25.7534 35.5195 21.8717 35.5195 17.585C35.5195 13.3025 33.7804 9.41913 30.9742 6.61509Z" fill="#E85D5D"/>
</svg>
