<svg width="40" height="36" viewBox="0 0 40 36" fill="none" xmlns="http://www.w3.org/2000/svg">
<path d="M33.9996 31.9946C33.9996 31.4469 33.7737 30.9432 33.4119 30.5814L33.372 30.5414C33.0202 30.2076 32.5445 30.0019 32.0248 29.9939H31.9988H29.0006C28.449 29.9939 28.0012 29.5461 28.0012 28.9945C28.0012 28.4408 28.449 27.9951 29.0006 27.9951H33.9996C34.5532 27.9951 35.053 27.7688 35.4128 27.409C35.7746 27.0412 36.0005 26.5415 36.0005 25.9938C36.0005 25.4462 35.7746 24.9448 35.4128 24.5831L35.3728 24.5391C35.021 24.2073 34.5473 23.9991 34.0276 23.9931H33.9996H31.0014C30.4497 23.9931 30 23.5434 30 22.9937C30 22.44 30.4497 21.9943 31.0014 21.9943H36.0005C36.5521 21.9943 37.0518 21.7704 37.4116 21.4107C37.7714 21.0429 37.9993 20.5413 37.9993 19.9916C37.9993 19.4419 37.7753 18.9401 37.4155 18.5823L37.3976 18.5647C37.0478 18.2229 36.5741 18.0048 36.0524 17.9928H31.0014C30.4497 17.9928 30 17.5451 30 16.9915C30 16.4418 30.4497 15.994 31.0014 15.994H36.0005C36.5521 15.994 37.0538 15.7702 37.4135 15.4104C37.7753 15.0426 38.0012 14.5429 38.0012 13.9933C38.0012 13.4436 37.7753 12.9418 37.4135 12.5801L37.3735 12.54C37.0157 12.2023 36.5301 11.9925 36.0005 11.9925H27.0018H26.9758H25.001C24.4493 11.9925 24.0016 11.5448 24.0016 10.9931C24.0016 10.4415 24.4493 9.99178 25.001 9.99178H26.2082C26.5221 8.51667 26.6221 7.25728 26.5481 6.18793C26.4582 4.91669 26.1184 3.93515 25.5967 3.19559C25.1729 2.59995 24.6353 2.2364 24.0976 2.0825C23.7218 1.97456 23.348 1.96664 23.0242 2.05858C22.7224 2.14054 22.4526 2.30613 22.2587 2.54999C22.0308 2.82982 21.8949 3.22987 21.8949 3.74555C21.8949 7.32739 20.4558 9.70574 18.439 11.2708C15.9145 13.2316 12.5125 13.8454 10.002 13.9694V29.9617C12.1428 30.2235 14.2394 31.0268 16.4121 31.8643C19.1165 32.9037 21.9529 33.9953 24.9971 33.9953H31.9988C32.5505 33.9953 33.0521 33.7696 33.4119 33.4098C33.7737 33.042 33.9996 32.5443 33.9996 31.9946ZM3.99967 14.9927C3.99967 14.441 4.4474 13.9933 4.99907 13.9933C5.55074 13.9933 6.00042 14.441 6.00042 14.9927V18.9942C6.00042 19.5458 5.55074 19.9916 4.99907 19.9916C4.4474 19.9916 3.99967 19.5458 3.99967 18.9942V14.9927ZM9.00264 33.9953H0.999399C0.447731 33.9953 0 33.5437 0 32.9921V10.9951C0 10.4414 0.447731 9.99178 0.999399 9.99178H9.00264C9.55431 9.99178 10.002 10.4414 10.002 10.9951V11.9667C12.2047 11.8507 15.1189 11.3231 17.2136 9.69411C18.7767 8.47884 19.8961 6.60383 19.8961 3.74555C19.8961 2.74816 20.2039 1.92237 20.7036 1.30074C21.1693 0.721092 21.7989 0.325315 22.5005 0.13543C23.1781 -0.0504575 23.9237 -0.0480918 24.6452 0.161781C25.5926 0.431618 26.5181 1.05108 27.2217 2.04248C27.9512 3.07786 28.425 4.39531 28.5409 6.05031C28.6209 7.18963 28.5329 8.49868 28.2451 9.99178H36.0005C37.0698 9.99178 38.0472 10.4216 38.7667 11.1132L38.8268 11.1669C39.5523 11.8904 40 12.8919 40 13.9933C40 15.0966 39.5523 16.0942 38.8268 16.8177L38.6368 16.9915L38.8207 17.1696C39.5502 17.8971 40 18.8983 40 19.9916C40 21.0929 39.5503 22.0965 38.8268 22.818C38.401 23.2358 37.8912 23.5653 37.3216 23.7672C37.7493 24.4048 38.0012 25.1703 38.0012 25.9938C38.0012 27.0952 37.5514 28.0947 36.8259 28.8203C36.4041 29.236 35.8905 29.568 35.3189 29.7699C35.7486 30.4055 36.0005 31.1731 36.0005 31.9946C36.0005 33.0959 35.5487 34.095 34.8251 34.8205C34.0996 35.5441 33.0982 35.9922 31.9988 35.9922H24.9971C21.6091 35.9922 18.5869 34.8309 15.7006 33.7216C13.7358 32.968 11.8369 32.2385 10.002 31.9726V32.9921C10.002 33.5437 9.55431 33.9953 9.00264 33.9953ZM1.9988 31.9946H8.00325V30.9508L7.99727 30.881V12.9919L8.00325 12.926V11.9925H1.9988V31.9946Z" fill="#E85D5D"/>
</svg>
