<svg width="95" height="35" viewBox="0 0 95 35" fill="none" xmlns="http://www.w3.org/2000/svg">
<g clip-path="url(#clip0)">
<path d="M18.3693 14.2578C17.8834 14.799 14.8704 16.5013 14.297 16.2258C13.9568 16.088 14.2095 15.3894 14.676 14.6711C15.8812 15.3894 17.8153 14.0709 17.689 13.2837C17.6209 12.8901 15.9492 12.2997 15.7451 12.2997C14.7732 12.2997 13.5389 13.51 12.9849 14.6908C12.4781 15.1465 11.9316 15.5549 11.352 15.9109C11.7881 14.8516 12.4292 13.8914 13.2376 13.0869C12.8267 12.8012 12.3527 12.6221 11.8574 12.5654C10.7172 13.0847 9.68733 13.8233 8.82506 14.74C9.79698 13.018 11.284 10.9615 11.7408 10.7352C11.274 10.5134 10.7688 10.3863 10.2538 10.3613C10.1749 10.3828 10.1039 10.4273 10.0497 10.4892C9.86501 10.2727 9.64147 10.0858 9.48596 10.0858C8.77672 10.1875 8.07526 10.3387 7.38661 10.5384H7.11448C7.11448 10.5384 0.699798 10.5679 1.47093e-05 11.1386C-0.145773 11.2665 0.612325 12.1226 0.971936 12.2308C1.22463 11.67 3.41146 11.4732 6.2689 11.3452C4.02377 13.5395 2.28403 15.8814 2.24515 16.3635C2.20627 16.8457 3.62528 17.131 3.93629 17.131C3.32398 16.6685 6.43413 12.8507 7.82398 11.296L9.52484 11.237C8.32766 12.7094 7.37863 14.3717 6.71599 16.1569C6.65767 16.4619 7.68791 17.0031 7.95033 16.9933C8.78193 15.8768 9.76331 14.8833 10.8661 14.0413C10.3833 14.6414 10.05 15.35 9.89417 16.1077C9.89417 16.3143 10.973 16.7571 11.5076 16.7571C12.009 16.6061 12.4531 16.304 12.7808 15.8912C12.7808 16.275 13.8402 16.9637 15.0453 16.9637C16.2505 16.9637 19.1177 14.6022 18.4568 14.2283L18.3693 14.2578ZM16.5227 13.018C16.6296 13.4018 16.1242 14.3168 14.8898 14.494C15.4147 13.7265 16.1145 13.018 16.5227 13.018Z" fill="black"/>
<path fill-rule="evenodd" clip-rule="evenodd" d="M37.9049 15.3894H50.6857C52.05 15.4227 53.4093 15.2095 54.6997 14.7596C55.2558 14.4808 55.754 14.0967 56.1673 13.6281L56.3034 13.51H43.6684C41.7246 13.5789 40.6846 13.1558 40.1987 12.467C39.6555 13.4883 38.9382 14.4044 38.0799 15.1729L37.8855 15.3402L37.9049 15.3894ZM22.743 9.92832C22.5059 9.39168 22.3739 8.81358 22.3542 8.22604V8.0194V7.79309C22.3525 7.23608 22.4479 6.68313 22.6361 6.15969C22.8345 5.62035 23.1203 5.11822 23.4816 4.67389C23.8902 4.16768 24.4004 3.75515 24.9784 3.4636C25.5426 3.19108 26.161 3.05307 26.7862 3.06017H31.7527C32.3842 3.0511 33.0094 3.18913 33.5799 3.4636C34.1283 3.75819 34.6087 4.16737 34.9892 4.66405C35.2535 4.99724 35.4785 5.36048 35.6598 5.74642C35.8371 6.10944 35.9709 6.49264 36.0583 6.88783L36.1263 7.36014C36.1263 7.51758 36.1263 7.67501 36.1263 7.82261C36.1263 8.07305 36.1068 8.32309 36.068 8.57043C36.0533 8.83205 36.0175 9.09202 35.9611 9.34777C35.8377 9.73463 35.668 10.1047 35.4557 10.4498C35.2394 10.8076 34.9816 11.1379 34.6879 11.4338C34.2195 11.9073 33.6606 12.279 33.0453 12.526C32.4549 12.7777 31.8199 12.905 31.1792 12.8999H27.2138C26.5763 12.9045 25.9447 12.7772 25.3574 12.526C24.7659 12.263 24.231 11.8853 23.7829 11.4141C23.3494 10.9852 22.9941 10.4823 22.7333 9.92832H22.743ZM19.2052 8.07844V8.19652C19.2019 9.24057 19.4172 10.2735 19.8369 11.2272C20.2737 12.1786 20.9028 13.0267 21.6836 13.7166C22.4737 14.4443 23.3897 15.018 24.3855 15.4091C25.3892 15.7891 26.4533 15.9792 27.5248 15.9699H30.9168C31.9916 15.9804 33.0591 15.7903 34.0659 15.4091C35.0594 15.0238 35.9727 14.4531 36.7581 13.7265C37.538 13.0358 38.167 12.1879 38.6047 11.237C39.0241 10.2832 39.2394 9.25038 39.2365 8.20636V8.07844C39.251 6.98933 39.0867 5.90534 38.7505 4.87068C38.4378 3.93988 37.9418 3.08295 37.2926 2.35171C36.6225 1.5799 35.7839 0.976846 34.8434 0.590393C33.7959 0.182036 32.6806 -0.0184049 31.5583 8.29482e-06H26.8931C25.7675 -0.0196722 24.6488 0.18079 23.5983 0.590393C22.6552 0.97268 21.8133 1.57239 21.1393 2.34187C20.4888 3.06841 19.9926 3.92242 19.6814 4.85101C19.3452 5.88904 19.181 6.97627 19.1955 8.0686L19.2052 8.07844ZM35.7278 16.8555H50.3066C58.8012 16.8555 55.1177 13.4903 60.9978 13.6773C68.0831 13.9036 75.042 14.5727 81.9913 15.2713C76.3152 16.7276 70.4934 17.81 64.6133 18.6955H43.6879C40.8596 18.5971 40.0237 19.5122 39.8002 20.7619C39.5788 20.4425 39.3386 20.1369 39.081 19.8468C37.9873 18.6029 36.5793 17.6844 35.0086 17.1901C35.2484 17.0917 35.4849 16.9801 35.7181 16.8555H35.7278ZM63.3693 14.6022C63.6211 14.6022 63.8672 14.6778 64.0766 14.8194C64.286 14.9611 64.4492 15.1624 64.5456 15.3979C64.6419 15.6335 64.6671 15.8926 64.618 16.1427C64.5689 16.3927 64.4476 16.6224 64.2696 16.8027C64.0915 16.9829 63.8646 17.1057 63.6177 17.1554C63.3707 17.2052 63.1147 17.1797 62.882 17.0821C62.6494 16.9845 62.4505 16.8193 62.3106 16.6073C62.1707 16.3954 62.096 16.1461 62.096 15.8912C62.096 15.5493 62.2302 15.2215 62.469 14.9797C62.7077 14.738 63.0316 14.6022 63.3693 14.6022ZM63.3693 15.0548C63.5327 15.0548 63.6924 15.1039 63.8282 15.1958C63.9641 15.2877 64.07 15.4183 64.1325 15.5711C64.195 15.724 64.2114 15.8921 64.1795 16.0544C64.1476 16.2166 64.069 16.3656 63.9534 16.4826C63.8379 16.5996 63.6907 16.6792 63.5304 16.7115C63.3702 16.7438 63.2041 16.7272 63.0531 16.6639C62.9022 16.6006 62.7731 16.4934 62.6824 16.3559C62.5916 16.2183 62.5431 16.0566 62.5431 15.8912C62.5431 15.6694 62.6302 15.4566 62.7851 15.2998C62.94 15.1429 63.1502 15.0548 63.3693 15.0548Z" fill="#E85D5D"/>
<path d="M80.6694 29.0371H90.9718V27.2364C90.9878 26.4029 90.7046 25.5918 90.1748 24.9536C89.6726 24.3844 89.0378 23.9515 88.3282 23.6941C87.5266 23.4231 86.685 23.2933 85.84 23.3104C85.0449 23.2373 84.2438 23.3472 83.4965 23.6317C82.7493 23.9163 82.0752 24.3682 81.5247 24.9536C80.9657 25.5783 80.6603 26.3936 80.6694 27.2364V29.0273V29.0371ZM-1.96092e-05 21.8639C-0.00488971 21.663 0.0295263 21.463 0.101249 21.2756C0.172972 21.0882 0.280587 20.9169 0.417906 20.7717C0.564711 20.6221 0.740934 20.5053 0.935154 20.4291C1.12937 20.3528 1.33726 20.3187 1.54533 20.3289H16.5226C16.7265 20.3225 16.9296 20.3574 17.1199 20.4318C17.3103 20.5062 17.4839 20.6184 17.6306 20.7619C17.9123 21.0618 18.0694 21.4599 18.0694 21.8738C18.0694 22.2877 17.9123 22.6857 17.6306 22.9857C17.4839 23.1291 17.3103 23.2414 17.1199 23.3158C16.9296 23.3901 16.7265 23.4251 16.5226 23.4186H10.5453V33.4552C10.5549 33.6658 10.5209 33.876 10.4456 34.0726C10.3703 34.2691 10.2553 34.4476 10.108 34.5966C9.96307 34.7363 9.79229 34.8457 9.60546 34.9183C9.41863 34.9909 9.21945 35.0254 9.01941 35.0197C8.82091 35.0246 8.62342 34.9898 8.43827 34.9172C8.25313 34.8446 8.08398 34.7356 7.94057 34.5966C7.79102 34.4488 7.6739 34.2708 7.59687 34.0741C7.51983 33.8774 7.48461 33.6665 7.49349 33.4552V23.4088H1.54533C1.34144 23.4153 1.13834 23.3803 0.948027 23.3059C0.757717 23.2315 0.584067 23.1193 0.437345 22.9758C0.291793 22.8317 0.177678 22.6583 0.102349 22.4668C0.0270201 22.2753 -0.00785149 22.0699 -1.96092e-05 21.8639ZM22.7429 28.5353C22.5034 27.9926 22.3713 27.4075 22.3542 26.8133V26.5673V26.3705C22.3524 25.8135 22.4479 25.2606 22.636 24.7371C22.8345 24.1978 23.1202 23.6957 23.4816 23.2513C23.8902 22.7451 24.4004 22.3326 24.9783 22.0411C25.5286 21.7792 26.1295 21.6447 26.7375 21.6475H31.704C32.3356 21.6384 32.9608 21.7764 33.5312 22.0509C34.0972 22.3396 34.5946 22.7492 34.9891 23.2513C35.2534 23.5845 35.4785 23.9478 35.6598 24.3337C35.8367 24.7097 35.9673 25.1062 36.0485 25.5145L36.1166 25.9868C36.1166 26.1442 36.1166 26.3017 36.1166 26.4493C36.1165 26.6997 36.097 26.9497 36.0582 27.1971C36.0186 27.444 35.9601 27.6875 35.8833 27.9252C35.7599 28.3121 35.5902 28.6822 35.3779 29.0273C35.1615 29.385 34.9038 29.7153 34.6101 30.0113C34.1655 30.4796 33.6336 30.8541 33.0453 31.1133C32.4548 31.365 31.8199 31.4923 31.1792 31.4872H27.2138C26.5763 31.4918 25.9446 31.3645 25.3574 31.1133C24.7659 30.8503 24.231 30.4726 23.7829 30.0014C23.3547 29.5776 23.0028 29.0815 22.7429 28.5353ZM19.2051 26.6854V26.8035C19.2019 27.8475 19.4172 28.8804 19.8369 29.8341C20.2736 30.7856 20.9027 31.6337 21.6835 32.3236C23.274 33.7976 25.359 34.6032 27.5151 34.5769H30.9071C31.9819 34.5874 33.0494 34.3973 34.0561 34.016C35.0497 33.6308 35.9629 33.06 36.7483 32.3334C37.5283 31.6428 38.1572 30.7949 38.595 29.844C39.0144 28.8902 39.2297 27.8574 39.2267 26.8133V26.6953C39.2412 25.6061 39.077 24.5221 38.7407 23.4875C38.428 22.5567 37.932 21.6998 37.2829 20.9685C36.6087 20.1993 35.7668 19.5996 34.8239 19.217C33.7764 18.8087 32.6611 18.6082 31.5388 18.6267H26.8736C25.748 18.607 24.6293 18.8074 23.5788 19.217C22.6357 19.5993 21.7938 20.199 21.1198 20.9685C20.4694 21.6951 19.9731 22.5491 19.6619 23.4777C19.3257 24.5157 19.1615 25.6029 19.176 26.6953L19.2051 26.6854ZM41.9967 24.1271V21.8836C41.9879 21.6778 42.0204 21.4722 42.0922 21.2794C42.164 21.0866 42.2737 20.9106 42.4146 20.7619C42.5577 20.6155 42.7291 20.5006 42.9181 20.4244C43.1071 20.3482 43.3096 20.3124 43.5129 20.3191C43.7163 20.3118 43.9189 20.3474 44.108 20.4236C44.2971 20.4998 44.4684 20.615 44.6112 20.7619C44.7511 20.9112 44.8602 21.0874 44.932 21.28C45.0037 21.4727 45.0368 21.6779 45.0291 21.8836V24.1074C45.3984 27.2069 47.9448 27.7776 50.5204 27.7776H56.3714V21.8738C56.3626 21.6679 56.3951 21.4624 56.4669 21.2696C56.5388 21.0768 56.6484 20.9007 56.7893 20.752C56.9324 20.6057 57.1038 20.4908 57.2928 20.4146C57.4818 20.3384 57.6843 20.3025 57.8876 20.3093C58.0926 20.298 58.2977 20.3304 58.4896 20.4044C58.6814 20.4785 58.8558 20.5924 59.0015 20.7389C59.1471 20.8855 59.2608 21.0613 59.3351 21.2551C59.4094 21.4489 59.4428 21.6563 59.4329 21.8639V33.4552C59.4431 33.6667 59.4084 33.878 59.3313 34.0748C59.2542 34.2717 59.1364 34.4496 58.9859 34.5966C58.6891 34.8785 58.2944 35.0306 57.8876 35.0197C57.6868 35.0246 57.4871 34.9889 57.3001 34.9145C57.1132 34.8402 56.9428 34.7287 56.799 34.5867C56.6537 34.4388 56.5406 34.2616 56.467 34.0668C56.3933 33.8719 56.3608 33.6635 56.3714 33.4552V30.8673H49.7915C45.7969 30.8673 42.2397 28.3483 42.0161 24.0976L41.9967 24.1271ZM61.4351 33.4552V21.9033C61.4236 21.691 61.4566 21.4787 61.532 21.2802C61.6074 21.0818 61.7234 20.9018 61.8725 20.752C62.1698 20.4768 62.5581 20.3242 62.961 20.3242C63.3639 20.3242 63.7522 20.4768 64.0496 20.752C64.1981 20.9022 64.3138 21.0822 64.3892 21.2806C64.4645 21.4789 64.4978 21.6911 64.4869 21.9033V26.2328L73.7105 20.5749C73.9625 20.4192 74.2511 20.3343 74.5463 20.3289C74.7466 20.3285 74.9447 20.3712 75.1274 20.4544C75.31 20.5375 75.4731 20.6591 75.6057 20.8111C75.8954 21.1104 76.0562 21.5138 76.0528 21.9328C76.0503 22.2013 75.9768 22.4643 75.8401 22.6944C75.7034 22.9245 75.5084 23.1134 75.2753 23.2415L68.2871 27.5513L75.8973 32.0973C76.1347 32.222 76.3342 32.4095 76.4746 32.64C76.6149 32.8705 76.6909 33.1352 76.6943 33.406C76.6952 33.6142 76.6553 33.8206 76.5769 34.0132C76.4985 34.2057 76.3831 34.3806 76.2375 34.5277C76.1026 34.6794 75.9377 34.8008 75.7535 34.8838C75.5693 34.9669 75.37 35.0098 75.1683 35.0099C74.8776 35.0056 74.5942 34.9168 74.3519 34.754L64.4481 28.8502V33.4552C64.4582 33.6658 64.4245 33.8763 64.3492 34.0729C64.2738 34.2695 64.1585 34.448 64.0107 34.5966C63.7133 34.8718 63.325 35.0244 62.9221 35.0244C62.5193 35.0244 62.131 34.8718 61.8336 34.5966C61.684 34.4488 61.5669 34.2708 61.4899 34.0741C61.4128 33.8774 61.3776 33.6665 61.3865 33.4552H61.4351ZM77.6856 33.4552V26.9904C77.6505 25.9908 77.8699 24.9987 78.3226 24.1096C78.7754 23.2205 79.4463 22.4641 80.2709 21.9131C81.9714 20.8822 83.9163 20.3378 85.8984 20.3378C87.8804 20.3378 89.8253 20.8822 91.5258 21.9131C92.344 22.47 93.0095 23.2278 93.4599 24.1157C93.9103 25.0037 94.131 25.9927 94.1014 26.9904V33.4552C94.1115 33.6667 94.0768 33.878 93.9997 34.0748C93.9226 34.2717 93.8048 34.4496 93.6543 34.5966C93.3575 34.8785 92.9629 35.0306 92.556 35.0197C92.351 35.0284 92.1465 34.9935 91.9556 34.9172C91.7648 34.841 91.5919 34.725 91.448 34.5769C91.3015 34.4305 91.1855 34.2557 91.1071 34.063C91.0286 33.8703 90.9892 33.6636 90.9912 33.4552V32.1465H80.6694V33.4552C80.6796 33.6658 80.6459 33.8763 80.5705 34.0729C80.4952 34.2695 80.3799 34.448 80.2321 34.5966C80.0886 34.7356 79.9195 34.8446 79.7344 34.9172C79.5492 34.9898 79.3517 35.0246 79.1532 35.0197C78.7464 35.0306 78.3517 34.8785 78.0549 34.5966C77.9096 34.447 77.7973 34.2679 77.7252 34.0712C77.6532 33.8745 77.6231 33.6645 77.637 33.4552H77.6856Z" fill="black"/>
</g>
<defs>
<clipPath id="clip0">
<rect width="94.0625" height="35" fill="white"/>
</clipPath>
</defs>
</svg>
