<svg width="24" height="22" viewBox="0 0 24 22" fill="none" xmlns="http://www.w3.org/2000/svg">
<path d="M21.75 0H2.25C1.00734 0 0 1.01028 0 2.25656V18.8047C0 20.0509 1.00734 21.0612 2.25 21.0612H21.75C22.9927 21.0612 24 20.0509 24 18.8047V2.25656C24 1.01028 22.9927 0 21.75 0ZM21.4688 18.8047H2.53125C2.45666 18.8047 2.38512 18.7749 2.33238 18.722C2.27963 18.6692 2.25 18.5974 2.25 18.5226V2.53863C2.25 2.46382 2.27963 2.39207 2.33238 2.33918C2.38512 2.28628 2.45666 2.25656 2.53125 2.25656H21.4688C21.5433 2.25656 21.6149 2.28628 21.6676 2.33918C21.7204 2.39207 21.75 2.46382 21.75 2.53863V18.5226C21.75 18.5974 21.7204 18.6692 21.6676 18.722C21.6149 18.7749 21.5433 18.8047 21.4688 18.8047ZM19.5 14.4796V15.6079C19.5 15.9194 19.2481 16.172 18.9375 16.172H9.5625C9.25186 16.172 9 15.9194 9 15.6079V14.4796C9 14.168 9.25186 13.9155 9.5625 13.9155H18.9375C19.2481 13.9155 19.5 14.168 19.5 14.4796ZM19.5 9.96647V11.0948C19.5 11.4063 19.2481 11.6589 18.9375 11.6589H9.5625C9.25186 11.6589 9 11.4063 9 11.0948V9.96647C9 9.65493 9.25186 9.40233 9.5625 9.40233H18.9375C19.2481 9.40233 19.5 9.65493 19.5 9.96647ZM19.5 5.45335V6.58163C19.5 6.89318 19.2481 7.14577 18.9375 7.14577H9.5625C9.25186 7.14577 9 6.89318 9 6.58163V5.45335C9 5.14181 9.25186 4.88921 9.5625 4.88921H18.9375C19.2481 4.88921 19.5 5.14181 19.5 5.45335ZM7.6875 6.01749C7.6875 6.95218 6.93197 7.70991 6 7.70991C5.06803 7.70991 4.3125 6.95218 4.3125 6.01749C4.3125 5.08281 5.06803 4.32507 6 4.32507C6.93197 4.32507 7.6875 5.08281 7.6875 6.01749ZM7.6875 10.5306C7.6875 11.4653 6.93197 12.223 6 12.223C5.06803 12.223 4.3125 11.4653 4.3125 10.5306C4.3125 9.59593 5.06803 8.83819 6 8.83819C6.93197 8.83819 7.6875 9.59593 7.6875 10.5306ZM7.6875 15.0437C7.6875 15.9784 6.93197 16.7362 6 16.7362C5.06803 16.7362 4.3125 15.9784 4.3125 15.0437C4.3125 14.109 5.06803 13.3513 6 13.3513C6.93197 13.3513 7.6875 14.109 7.6875 15.0437Z" fill="#E85D5D"/>
</svg>
